<mxfile host="Electron" modified="2024-06-10T12:08:13.919Z" agent="Mozilla/5.0 (X11; Linux x86_64) AppleWebKit/537.36 (KHTML, like Gecko) draw.io/24.1.0 Chrome/120.0.6099.109 Electron/28.1.0 Safari/537.36" etag="7IkM_lzZSf51kTlZiBAq" version="24.1.0" type="device">
  <diagram name="Page-1" id="FjyFdkl8cPZOXjj5zKfP">
    <mxGraphModel dx="1622" dy="1048" grid="1" gridSize="10" guides="1" tooltips="1" connect="1" arrows="1" fold="1" page="1" pageScale="1" pageWidth="827" pageHeight="1169" math="0" shadow="0">
      <root>
        <mxCell id="0" />
        <mxCell id="1" parent="0" />
        <mxCell id="SKQvZb8Qlo8wPFsx3YgO-23" style="edgeStyle=orthogonalEdgeStyle;rounded=0;orthogonalLoop=1;jettySize=auto;html=1;endArrow=none;endFill=0;" parent="1" source="SKQvZb8Qlo8wPFsx3YgO-1" target="SKQvZb8Qlo8wPFsx3YgO-22" edge="1">
          <mxGeometry relative="1" as="geometry" />
        </mxCell>
        <mxCell id="SKQvZb8Qlo8wPFsx3YgO-27" value="0,n" style="edgeLabel;html=1;align=center;verticalAlign=middle;resizable=0;points=[];" parent="SKQvZb8Qlo8wPFsx3YgO-23" vertex="1" connectable="0">
          <mxGeometry x="-0.1755" y="1" relative="1" as="geometry">
            <mxPoint as="offset" />
          </mxGeometry>
        </mxCell>
        <mxCell id="SKQvZb8Qlo8wPFsx3YgO-1" value="magasin" style="rounded=0;whiteSpace=wrap;html=1;" parent="1" vertex="1">
          <mxGeometry x="-90" y="370" width="120" height="60" as="geometry" />
        </mxCell>
        <mxCell id="SKQvZb8Qlo8wPFsx3YgO-18" style="edgeStyle=orthogonalEdgeStyle;rounded=0;orthogonalLoop=1;jettySize=auto;html=1;endArrow=none;endFill=0;" parent="1" source="SKQvZb8Qlo8wPFsx3YgO-2" target="SKQvZb8Qlo8wPFsx3YgO-5" edge="1">
          <mxGeometry relative="1" as="geometry" />
        </mxCell>
        <mxCell id="SKQvZb8Qlo8wPFsx3YgO-21" value="1,1" style="edgeLabel;html=1;align=center;verticalAlign=middle;resizable=0;points=[];" parent="SKQvZb8Qlo8wPFsx3YgO-18" vertex="1" connectable="0">
          <mxGeometry x="-0.0254" y="-1" relative="1" as="geometry">
            <mxPoint as="offset" />
          </mxGeometry>
        </mxCell>
        <mxCell id="SKQvZb8Qlo8wPFsx3YgO-24" style="edgeStyle=orthogonalEdgeStyle;rounded=0;orthogonalLoop=1;jettySize=auto;html=1;endArrow=none;endFill=0;" parent="1" source="SKQvZb8Qlo8wPFsx3YgO-2" target="SKQvZb8Qlo8wPFsx3YgO-22" edge="1">
          <mxGeometry relative="1" as="geometry" />
        </mxCell>
        <mxCell id="SKQvZb8Qlo8wPFsx3YgO-28" value="0,n" style="edgeLabel;html=1;align=center;verticalAlign=middle;resizable=0;points=[];" parent="SKQvZb8Qlo8wPFsx3YgO-24" vertex="1" connectable="0">
          <mxGeometry x="0.0571" y="-2" relative="1" as="geometry">
            <mxPoint as="offset" />
          </mxGeometry>
        </mxCell>
        <mxCell id="SKQvZb8Qlo8wPFsx3YgO-2" value="jeu de société" style="rounded=0;whiteSpace=wrap;html=1;" parent="1" vertex="1">
          <mxGeometry x="290" y="370" width="120" height="60" as="geometry" />
        </mxCell>
        <mxCell id="SKQvZb8Qlo8wPFsx3YgO-19" style="edgeStyle=orthogonalEdgeStyle;rounded=0;orthogonalLoop=1;jettySize=auto;html=1;endArrow=none;endFill=0;" parent="1" source="SKQvZb8Qlo8wPFsx3YgO-3" target="SKQvZb8Qlo8wPFsx3YgO-5" edge="1">
          <mxGeometry relative="1" as="geometry" />
        </mxCell>
        <mxCell id="SKQvZb8Qlo8wPFsx3YgO-20" value="0,n" style="edgeLabel;html=1;align=center;verticalAlign=middle;resizable=0;points=[];" parent="SKQvZb8Qlo8wPFsx3YgO-19" vertex="1" connectable="0">
          <mxGeometry x="-0.0571" relative="1" as="geometry">
            <mxPoint as="offset" />
          </mxGeometry>
        </mxCell>
        <mxCell id="SKQvZb8Qlo8wPFsx3YgO-3" value="éditeur" style="rounded=0;whiteSpace=wrap;html=1;" parent="1" vertex="1">
          <mxGeometry x="740" y="370" width="120" height="60" as="geometry" />
        </mxCell>
        <mxCell id="SKQvZb8Qlo8wPFsx3YgO-5" value="éditer" style="swimlane;whiteSpace=wrap;html=1;" parent="1" vertex="1">
          <mxGeometry x="500" y="375" width="130" height="50" as="geometry" />
        </mxCell>
        <mxCell id="SKQvZb8Qlo8wPFsx3YgO-8" style="rounded=0;orthogonalLoop=1;jettySize=auto;html=1;endArrow=none;endFill=0;" parent="1" source="SKQvZb8Qlo8wPFsx3YgO-6" target="SKQvZb8Qlo8wPFsx3YgO-3" edge="1">
          <mxGeometry relative="1" as="geometry" />
        </mxCell>
        <mxCell id="SKQvZb8Qlo8wPFsx3YgO-6" value="raison sociale" style="ellipse;whiteSpace=wrap;html=1;" parent="1" vertex="1">
          <mxGeometry x="610" y="505" width="120" height="80" as="geometry" />
        </mxCell>
        <mxCell id="SKQvZb8Qlo8wPFsx3YgO-9" style="rounded=0;orthogonalLoop=1;jettySize=auto;html=1;strokeColor=default;align=center;verticalAlign=middle;fontFamily=Helvetica;fontSize=11;fontColor=default;labelBackgroundColor=default;endArrow=none;endFill=0;" parent="1" source="SKQvZb8Qlo8wPFsx3YgO-7" target="SKQvZb8Qlo8wPFsx3YgO-3" edge="1">
          <mxGeometry relative="1" as="geometry" />
        </mxCell>
        <mxCell id="SKQvZb8Qlo8wPFsx3YgO-7" value="siège social" style="ellipse;whiteSpace=wrap;html=1;" parent="1" vertex="1">
          <mxGeometry x="827" y="450" width="120" height="80" as="geometry" />
        </mxCell>
        <mxCell id="SKQvZb8Qlo8wPFsx3YgO-16" style="rounded=0;orthogonalLoop=1;jettySize=auto;html=1;strokeColor=default;align=center;verticalAlign=middle;fontFamily=Helvetica;fontSize=11;fontColor=default;labelBackgroundColor=default;endArrow=none;endFill=0;" parent="1" source="SKQvZb8Qlo8wPFsx3YgO-10" target="SKQvZb8Qlo8wPFsx3YgO-2" edge="1">
          <mxGeometry relative="1" as="geometry" />
        </mxCell>
        <mxCell id="SKQvZb8Qlo8wPFsx3YgO-10" value="titre" style="ellipse;whiteSpace=wrap;html=1;" parent="1" vertex="1">
          <mxGeometry x="210" y="505" width="120" height="80" as="geometry" />
        </mxCell>
        <mxCell id="SKQvZb8Qlo8wPFsx3YgO-14" style="rounded=0;orthogonalLoop=1;jettySize=auto;html=1;endArrow=none;endFill=0;" parent="1" source="SKQvZb8Qlo8wPFsx3YgO-11" target="SKQvZb8Qlo8wPFsx3YgO-2" edge="1">
          <mxGeometry relative="1" as="geometry">
            <mxPoint x="380" y="440" as="targetPoint" />
          </mxGeometry>
        </mxCell>
        <mxCell id="SKQvZb8Qlo8wPFsx3YgO-11" value="type (rpg, ...)" style="ellipse;whiteSpace=wrap;html=1;" parent="1" vertex="1">
          <mxGeometry x="190" y="150" width="120" height="80" as="geometry" />
        </mxCell>
        <mxCell id="SKQvZb8Qlo8wPFsx3YgO-17" style="rounded=0;orthogonalLoop=1;jettySize=auto;html=1;strokeColor=default;align=center;verticalAlign=middle;fontFamily=Helvetica;fontSize=11;fontColor=default;labelBackgroundColor=default;endArrow=none;endFill=0;" parent="1" source="SKQvZb8Qlo8wPFsx3YgO-12" target="SKQvZb8Qlo8wPFsx3YgO-2" edge="1">
          <mxGeometry relative="1" as="geometry" />
        </mxCell>
        <mxCell id="SKQvZb8Qlo8wPFsx3YgO-12" value="nb_joueurs" style="ellipse;whiteSpace=wrap;html=1;" parent="1" vertex="1">
          <mxGeometry x="380" y="530" width="120" height="80" as="geometry" />
        </mxCell>
        <mxCell id="SKQvZb8Qlo8wPFsx3YgO-15" style="rounded=0;orthogonalLoop=1;jettySize=auto;html=1;strokeColor=default;align=center;verticalAlign=middle;fontFamily=Helvetica;fontSize=11;fontColor=default;labelBackgroundColor=default;endArrow=none;endFill=0;" parent="1" source="SKQvZb8Qlo8wPFsx3YgO-13" target="SKQvZb8Qlo8wPFsx3YgO-2" edge="1">
          <mxGeometry relative="1" as="geometry" />
        </mxCell>
        <mxCell id="SKQvZb8Qlo8wPFsx3YgO-13" value="age" style="ellipse;whiteSpace=wrap;html=1;" parent="1" vertex="1">
          <mxGeometry x="360" y="130" width="120" height="80" as="geometry" />
        </mxCell>
        <mxCell id="SKQvZb8Qlo8wPFsx3YgO-22" value="vendre" style="swimlane;whiteSpace=wrap;html=1;" parent="1" vertex="1">
          <mxGeometry x="100" y="375" width="130" height="50" as="geometry" />
        </mxCell>
        <mxCell id="SKQvZb8Qlo8wPFsx3YgO-26" style="rounded=0;orthogonalLoop=1;jettySize=auto;html=1;endArrow=none;endFill=0;" parent="1" source="SKQvZb8Qlo8wPFsx3YgO-25" target="SKQvZb8Qlo8wPFsx3YgO-1" edge="1">
          <mxGeometry relative="1" as="geometry" />
        </mxCell>
        <mxCell id="SKQvZb8Qlo8wPFsx3YgO-25" value="website" style="ellipse;whiteSpace=wrap;html=1;" parent="1" vertex="1">
          <mxGeometry x="-150" y="210" width="120" height="80" as="geometry" />
        </mxCell>
        <mxCell id="SKQvZb8Qlo8wPFsx3YgO-30" style="rounded=0;orthogonalLoop=1;jettySize=auto;html=1;endArrow=none;endFill=0;" parent="1" source="SKQvZb8Qlo8wPFsx3YgO-29" target="SKQvZb8Qlo8wPFsx3YgO-22" edge="1">
          <mxGeometry relative="1" as="geometry" />
        </mxCell>
        <mxCell id="SKQvZb8Qlo8wPFsx3YgO-29" value="prix" style="ellipse;whiteSpace=wrap;html=1;" parent="1" vertex="1">
          <mxGeometry x="40" y="505" width="120" height="80" as="geometry" />
        </mxCell>
      </root>
    </mxGraphModel>
  </diagram>
</mxfile>
